# xmcd
#
# Track frame offsets: 
#        150
#        34060
#        56510
#        89645
#        125697
#        155400
#        221167
#
# Disc length: 3424 seconds
#
# Revision: 1
# Processed by: cddbd v1.5.2PL0 Copyright (c) Steve Scherf et al.
# Submitted via: ExactAudioCopyFreeDBPlugin 1.0
#
DISCID=630d5e07
DTITLE=Joe Root band - absolutely live!
DYEAR=1992
DGENRE=Funk
TTITLE0=On Broadway
TTITLE1=CQ Blues
TTITLE2=Green Onions
TTITLE3=The Thrill Is Gone
TTITLE4=Bad Blues
TTITLE5=Little Wing
TTITLE6=Funky Feelin
EXTD=
EXTT0=
EXTT1=
EXTT2=
EXTT3=
EXTT4=
EXTT5=
EXTT6=
PLAYORDER=
